<svg xmlns="http://www.w3.org/2000/svg" width="42.952" height="50" viewBox="0 0 42.952 50">
  <g id="loans_icon" data-name="loans icon" transform="translate(-456 -869)">
    <path id="Path_390" data-name="Path 390" d="M74.378,28.555a35.756,35.756,0,0,0-5.405-8.669,40.271,40.271,0,0,0-6.923-6.58l5.3-9.834A1.231,1.231,0,0,0,67.122,2a6.214,6.214,0,0,0-4.449-2A10.463,10.463,0,0,0,58.64,1.06a7.633,7.633,0,0,1-2.536.759,1.579,1.579,0,0,1-.593-.1A18.473,18.473,0,0,0,49.3.249a8.426,8.426,0,0,0-6.258,2.931,1.255,1.255,0,0,0-.146,1.559l5.717,8.638a40.945,40.945,0,0,0-6.83,6.507,36.079,36.079,0,0,0-5.405,8.669A29.479,29.479,0,0,0,33.9,40.322,9.693,9.693,0,0,0,43.578,50h23.6a9.693,9.693,0,0,0,9.678-9.678A29.479,29.479,0,0,0,74.378,28.555ZM45.553,4.22a5.438,5.438,0,0,1,3.742-1.5,16.2,16.2,0,0,1,5.353,1.32,4.224,4.224,0,0,0,1.445.249,9.208,9.208,0,0,0,3.493-.946,8.43,8.43,0,0,1,3.077-.873,3.3,3.3,0,0,1,2.006.686l-4.99,9.272h-8.69ZM67.174,47.505h-23.6a7.191,7.191,0,0,1-7.183-7.183c0-6.663,2.443-12.983,7.245-18.784A38.158,38.158,0,0,1,50.7,14.927h9.335a37.44,37.44,0,0,1,7.058,6.611c4.813,5.8,7.245,12.11,7.245,18.784A7.16,7.16,0,0,1,67.174,47.505Z" transform="translate(422.1 869)" fill="#FFF"/>
    <g id="_33917" data-name="33917" transform="translate(471.089 892.241)">
      <g id="Group_334" data-name="Group 334" transform="translate(0.911 1.112)">
        <path id="Path_531" data-name="Path 531" d="M19.449,14.147h0l-.118.026a.579.579,0,0,0-.164.048l-.05.019a5.392,5.392,0,0,1-2.45.6,5.436,5.436,0,0,1-.846-.119c-.409-.07-.854-.149-1.331-.235s-.943-.168-1.4-.247A6.725,6.725,0,0,0,12,14.123c-.193,0-.388.009-.581.028l-.823.079.563-.606c.056-.061.11-.121.161-.181a4.594,4.594,0,0,0,.621-.926,4.005,4.005,0,0,0,.348-1.05,6.908,6.908,0,0,0,.107-1.265,2.644,2.644,0,0,0-.074-.622l-.094-.389,3.145-.006a.435.435,0,0,0,.15-.039.806.806,0,0,0-.089-1.566.417.417,0,0,0-.079-.01h-.027l-.041,0H11.836l-.069-.221a10.23,10.23,0,0,1-.545-2.916,2.845,2.845,0,0,1,.21-1.084,2.916,2.916,0,0,1,.577-.9,2.606,2.606,0,0,1,.89-.609,2.994,2.994,0,0,1,1.17-.221,2.5,2.5,0,0,1,2.823,2.536.293.293,0,0,1,.007.029l.006.077,0,.016a.637.637,0,0,0,.032.152,1.058,1.058,0,0,0,2.1-.023h0l.006-.146s0-.02,0-.04V4.2a5.072,5.072,0,0,0-.485-1.809,4.077,4.077,0,0,0-1.023-1.312,4.337,4.337,0,0,0-1.5-.8A6.362,6.362,0,0,0,14.123,0,6.257,6.257,0,0,0,12.07.322a4.645,4.645,0,0,0-1.591.916A4.092,4.092,0,0,0,9.446,2.7a4.927,4.927,0,0,0-.37,1.939,6.915,6.915,0,0,0,.134,1.227c.07.38.177.818.318,1.3l.117.4-1.793,0a.807.807,0,0,0-.007,1.607l.077.014,2.189,0,.054.248a5.476,5.476,0,0,1,.125,1.16,6.482,6.482,0,0,1-.162,1.523,4.253,4.253,0,0,1-.463,1.168,3.6,3.6,0,0,1-.739.884,5.122,5.122,0,0,1-1,.667c-.6.2-1.267.559-1.153,1.19a1.007,1.007,0,0,0,1.106.821.078.078,0,0,0,.03-.009,9.724,9.724,0,0,1,3.953-1,3.59,3.59,0,0,1,.625.075c.265.05.558.112.87.183s.641.15.977.236.66.165.972.236.6.135.854.188a3.152,3.152,0,0,0,.61.08h.046a7.741,7.741,0,0,0,2.476-.512c.115-.05.467-.181.467-.181a1.013,1.013,0,0,0-.316-2Z" transform="translate(-7.676 -1.112)" fill="#FFF"/>
      </g>
    </g>
  </g>
</svg>
