<svg xmlns="http://www.w3.org/2000/svg" width="53.294" height="47.214" viewBox="0 0 53.294 47.214">
  <g id="credit_cards_icon" data-name="credit cards icon" transform="translate(-773.345 -883.344)">
    <g id="Group_205" data-name="Group 205" transform="matrix(0.921, 0.391, -0.391, 0.921, 786.342, 884)" opacity="0.4">
      <path id="Path_401" data-name="Path 401" d="M39.63,0H3.434A3.7,3.7,0,0,0,0,3.833V27.809a3.623,3.623,0,0,0,3.434,3.779h36.2a3.623,3.623,0,0,0,3.434-3.779V3.778A3.622,3.622,0,0,0,39.63,0Zm1.838,27.809a1.939,1.939,0,0,1-1.838,2.023H3.434A1.939,1.939,0,0,1,1.6,27.809V3.833A2,2,0,0,1,3.434,1.756h36.2a1.938,1.938,0,0,1,1.838,2.022Zm0,0" transform="translate(0 0)" fill="#FFF" stroke="rgba(0,0,0,0)" stroke-width="1"/>
      <g id="Group_203" data-name="Group 203" transform="translate(4.762 6.125)">
        <path id="Path_402" data-name="Path 402" d="M4.614,7.672a3.058,3.058,0,1,1,1.66-5.623L6.241,2.1A4.615,4.615,0,1,0,10.11,0a.778.778,0,1,0,0,1.557A3.058,3.058,0,1,1,8.449,7.18,4.614,4.614,0,1,0,4.614,9.229a.778.778,0,1,0,0-1.556ZM7.672,4.614a3.051,3.051,0,0,1-.31,1.341,3.049,3.049,0,0,1,0-2.681,3.034,3.034,0,0,1,.31,1.34Zm0,0" transform="translate(19.584 0.078)" fill="#FFF" stroke="rgba(0,0,0,0)" stroke-width="1"/>
        <path id="Path_403" data-name="Path 403" d="M8.8,0H2.863A2.866,2.866,0,0,0,0,2.862V6.486A2.866,2.866,0,0,0,2.863,9.349H8.8A2.866,2.866,0,0,0,11.66,6.486V2.862A2.866,2.866,0,0,0,8.8,0Zm0,7.793H2.863a1.309,1.309,0,0,1-1.211-.816H3.9a.778.778,0,1,0,0-1.557H1.557V3.889H3.9a.778.778,0,1,0,0-1.556H1.67a1.309,1.309,0,0,1,1.194-.776H8.8a1.307,1.307,0,0,1,1.193.776H7.717a.778.778,0,0,0,0,1.556H10.1V5.42H7.717a.778.778,0,0,0,0,1.557h2.29a1.307,1.307,0,0,1-1.21.816Zm0,0" transform="translate(0 0)" fill="#FFF" stroke="rgba(0,0,0,0)" stroke-width="1"/>
      </g>
      <g id="Group_202" data-name="Group 202" transform="translate(5.555 21.956)">
        <path id="Path_404" data-name="Path 404" d="M.878,0A.878.878,0,0,0,0,.878V2.526a.878.878,0,1,0,1.756,0V.878A.878.878,0,0,0,.878,0Zm0,0" transform="translate(0 0)" fill="#FFF" stroke="rgba(0,0,0,0)" stroke-width="1"/>
        <path id="Path_405" data-name="Path 405" d="M.878,0A.878.878,0,0,0,0,.878V2.526a.878.878,0,1,0,1.756,0V.878A.878.878,0,0,0,.878,0Zm0,0" transform="translate(5.555 0)" fill="#FFF" stroke="rgba(0,0,0,0)" stroke-width="1"/>
        <path id="Path_408" data-name="Path 408" d="M.878,0A.878.878,0,0,0,0,.878V2.526a.878.878,0,1,0,1.756,0V.878A.878.878,0,0,0,.878,0Zm0,0" transform="translate(11.904 0)" fill="#FFF" stroke="rgba(0,0,0,0)" stroke-width="1"/>
        <path id="Path_410" data-name="Path 410" d="M.878,0A.878.878,0,0,0,0,.878V2.526a.878.878,0,1,0,1.756,0V.878A.878.878,0,0,0,.878,0Zm0,0" transform="translate(18.252 0)" fill="#FFF" stroke="rgba(0,0,0,0)" stroke-width="1"/>
        <path id="Path_411" data-name="Path 411" d="M.879,0A.878.878,0,0,0,0,.878V2.526a.878.878,0,1,0,1.756,0V.878A.878.878,0,0,0,.879,0Zm0,0" transform="translate(24.6 0)" fill="#FFF" stroke="rgba(0,0,0,0)" stroke-width="1"/>
        <path id="Path_412" data-name="Path 412" d="M.879,0A.878.878,0,0,0,0,.878V2.526a.878.878,0,1,0,1.756,0V.878A.878.878,0,0,0,.879,0Zm0,0" transform="translate(30.155 0)" fill="#FFF" stroke="rgba(0,0,0,0)" stroke-width="1"/>
      </g>
    </g>
    <rect id="Rectangle_42" data-name="Rectangle 42" width="44.975" height="32.29" rx="2" transform="translate(778 895.532)" fill="transparent"/>
    <g id="Group_204" data-name="Group 204" transform="translate(776 894.597)">
      <path id="Path_401-2" data-name="Path 401" d="M401.3,207H361.752A4.042,4.042,0,0,0,358,211.188v26.2a3.959,3.959,0,0,0,3.752,4.129H401.3a3.959,3.959,0,0,0,3.752-4.129V211.128A3.958,3.958,0,0,0,401.3,207Zm2.008,30.385a2.119,2.119,0,0,1-2.008,2.21H361.752a2.119,2.119,0,0,1-2.008-2.21v-26.2a2.179,2.179,0,0,1,2.008-2.269H401.3a2.118,2.118,0,0,1,2.008,2.209Zm0,0" transform="translate(-358 -207)" fill="#FFF" stroke="rgba(0,0,0,0)" stroke-width="1"/>
      <g id="Group_203-2" data-name="Group 203" transform="translate(5.203 6.692)">
        <path id="Path_402-2" data-name="Path 402" d="M548.636,260.664a3.341,3.341,0,1,1,1.814-6.144l-.036.053a5.042,5.042,0,1,0,4.227-2.292.85.85,0,1,0,0,1.7,3.341,3.341,0,1,1-1.814,6.144,5.041,5.041,0,1,0-4.19,2.238.85.85,0,1,0,0-1.7Zm3.341-3.341a3.333,3.333,0,0,1-.339,1.466,3.331,3.331,0,0,1,0-2.929,3.314,3.314,0,0,1,.339,1.464Zm0,0" transform="translate(-522.196 -252.196)" fill="#FFF" stroke="rgba(0,0,0,0)" stroke-width="1"/>
        <path id="Path_403-2" data-name="Path 403" d="M393.327,251.64h-6.483a3.131,3.131,0,0,0-3.129,3.127v3.96a3.132,3.132,0,0,0,3.129,3.128h6.483a3.132,3.132,0,0,0,3.128-3.128v-3.96a3.131,3.131,0,0,0-3.128-3.127Zm0,8.515h-6.483a1.43,1.43,0,0,1-1.323-.892h2.461a.851.851,0,1,0,0-1.7h-2.565V255.89h2.565a.85.85,0,1,0,0-1.7H385.54a1.43,1.43,0,0,1,1.3-.848h6.483a1.428,1.428,0,0,1,1.3.848h-2.483a.85.85,0,1,0,0,1.7h2.607v1.672h-2.607a.851.851,0,0,0,0,1.7h2.5a1.428,1.428,0,0,1-1.322.892Zm0,0" transform="translate(-383.715 -251.64)" fill="#FFF" stroke="rgba(0,0,0,0)" stroke-width="1"/>
      </g>
      <g id="Group_202-2" data-name="Group 202" transform="translate(6.07 23.99)">
        <path id="Path_404-2" data-name="Path 404" d="M397.541,367.019a.959.959,0,0,0-.959.959v1.8a.96.96,0,1,0,1.919,0v-1.8a.96.96,0,0,0-.96-.959Zm0,0" transform="translate(-396.582 -367.019)" fill="#FFF" stroke="rgba(0,0,0,0)" stroke-width="1"/>
        <path id="Path_405-2" data-name="Path 405" d="M429.354,367.019a.959.959,0,0,0-.959.959v1.8a.96.96,0,1,0,1.919,0v-1.8a.96.96,0,0,0-.96-.959Zm0,0" transform="translate(-422.325 -367.019)" fill="#FFF" stroke="rgba(0,0,0,0)" stroke-width="1"/>
        <path id="Path_408-2" data-name="Path 408" d="M525.01,367.019a.959.959,0,0,0-.959.959v1.8a.96.96,0,1,0,1.919,0v-1.8a.96.96,0,0,0-.96-.959Zm0,0" transform="translate(-511.044 -367.019)" fill="#FFF" stroke="rgba(0,0,0,0)" stroke-width="1"/>
        <path id="Path_410-2" data-name="Path 410" d="M588.632,367.019a.959.959,0,0,0-.96.959v1.8a.96.96,0,1,0,1.919,0v-1.8a.959.959,0,0,0-.959-.959Zm0,0" transform="translate(-567.729 -367.019)" fill="#FFF" stroke="rgba(0,0,0,0)" stroke-width="1"/>
        <path id="Path_411-2" data-name="Path 411" d="M620.444,367.019a.96.96,0,0,0-.96.959v1.8a.96.96,0,1,0,1.919,0v-1.8a.959.959,0,0,0-.959-.959Zm0,0" transform="translate(-592.605 -367.019)" fill="#FFF" stroke="rgba(0,0,0,0)" stroke-width="1"/>
        <path id="Path_412-2" data-name="Path 412" d="M652.94,367.019a.96.96,0,0,0-.96.959v1.8a.96.96,0,1,0,1.919,0v-1.8a.959.959,0,0,0-.959-.959Zm0,0" transform="translate(-619.031 -367.019)" fill="#FFF" stroke="rgba(0,0,0,0)" stroke-width="1"/>
      </g>
    </g>
  </g>
</svg>
