<svg xmlns="http://www.w3.org/2000/svg" width="51.829" height="50" viewBox="0 0 51.829 50">
  <g id="bank_account_icon" data-name="bank account icon" transform="translate(-1423 -878)">
    <g id="Group_231" data-name="Group 231" transform="translate(1423 878)">
      <path id="Path_492" data-name="Path 492" d="M35.9-483.572c-.465.265-24.7,19.162-25.037,19.516a.983.983,0,0,0-.365.852.906.906,0,0,0,.343.808l.332.321H61.6l.332-.321a.906.906,0,0,0,.343-.808,1,1,0,0,0-.354-.852c-.509-.52-24.826-19.416-25.17-19.549A.883.883,0,0,0,35.9-483.572ZM46.976-472.8c5.83,4.536,10.621,8.3,10.632,8.353s-8.1.1-21.22.1c-13.187,0-21.242-.044-21.219-.1.022-.077,21.054-16.551,21.187-16.595C36.366-481.049,41.145-477.332,46.976-472.8Z" transform="translate(-10.474 483.697)" fill="#d42360"/>
      <path id="Path_494" data-name="Path 494" d="M61.444-29.226a1.134,1.134,0,0,0-.487,1.881c.321.321.476.354,1.261.321l.409-.022v13.055l-.675.044c-.6.044-.73.1-1,.4a1.106,1.106,0,0,0-.188,1.295c.277.608.288.608,6.041.608,5.144,0,5.31-.011,5.587-.221a1.144,1.144,0,0,0,.365-1.361,1.3,1.3,0,0,0-1.327-.741h-.487l-.056-.642c-.033-.343-.056-3.275-.044-6.494l.022-5.864L71.556-27c.553-.022.73-.088.951-.31a1.077,1.077,0,0,0,.254-1.284c-.343-.719-.155-.7-5.819-.719C63.989-29.325,61.643-29.292,61.444-29.226Zm6.251,2.268.8.066v12.922h-3.54v-6.45c0-3.551.022-6.483.044-6.505A15.02,15.02,0,0,1,67.695-26.957Z" transform="translate(-57.955 53.347)" fill="#614b79"/>
      <path id="Path_495" data-name="Path 495" d="M383.648-29.633a1.142,1.142,0,0,0-.808,1.1c0,.863.752,1.295,1.991,1.151l.664-.077v13.088h-.885c-1.35,0-1.77.288-1.77,1.217a.917.917,0,0,0,.321.785l.321.321h5.333c4.525,0,5.366-.022,5.643-.166a.929.929,0,0,0,.553-.929c0-.841-.531-1.228-1.7-1.228h-.73v-6.538c0-6.151.011-6.538.188-6.472a2.943,2.943,0,0,0,.907,0c.587-.056.785-.133,1.029-.387a1.12,1.12,0,0,0-.553-1.87C393.627-29.788,384.146-29.777,383.648-29.633Zm6.583,8.751.022,6.505h-2.434v-6.45c0-3.551.022-6.483.044-6.505a9.106,9.106,0,0,1,1.195-.044h1.14Z" transform="translate(-363.122 53.754)" fill="#614b79"/>
      <path id="Path_496" data-name="Path 496" d="M724.549-29.813a1.141,1.141,0,0,0,.133,2.157,3.427,3.427,0,0,0,.985.044l.608-.066v13.066l-.9.044c-.852.033-.907.056-1.217.4a1.1,1.1,0,0,0-.188,1.295c.277.608.266.608,6.383.608h5.653l.332-.3a1.076,1.076,0,0,0,.221-1.449c-.31-.5-.6-.575-2.058-.575h-1.261v-13l1.405-.033a8.493,8.493,0,0,0,1.6-.144,1.457,1.457,0,0,0,.531-1.007,1.219,1.219,0,0,0-.852-1.073C735.259-30.034,724.992-30,724.549-29.813ZM730.9-21.1l.022,6.505H728.6v-6.45c0-3.551.022-6.483.044-6.505a8.346,8.346,0,0,1,1.14-.044h1.084Z" transform="translate(-686.089 53.968)" fill="#614b79"/>
      <path id="Path_497" data-name="Path 497" d="M10.5,328.04a1.162,1.162,0,0,0-.088,1.848l.288.254h50.46l.321-.321a.917.917,0,0,0,.321-.785.978.978,0,0,0-.553-1.051c-.288-.144-3.241-.166-25.357-.166C11.233,327.819,10.857,327.819,10.5,328.04Z" transform="translate(-10.001 -284.9)" fill="#d42360"/>
      <path id="Path_498" data-name="Path 498" d="M10.414,418.023a1.172,1.172,0,0,0,.088,1.858c.354.222.73.222,25.413.222s25.058,0,25.413-.221a1.172,1.172,0,0,0,.088-1.858l-.288-.243H10.7Z" transform="translate(-10.001 -370.103)" fill="#d42360"/>
    </g>
  </g>
</svg>
