<?xml version="1.0" encoding="utf-8"?>
<!-- Generator: Adobe Illustrator 23.0.5, SVG Export Plug-In . SVG Version: 6.00 Build 0)  -->
<svg version="1.1" id="Layer_1" xmlns="http://www.w3.org/2000/svg" xmlns:xlink="http://www.w3.org/1999/xlink" x="0px" y="0px"
	 viewBox="0 0 506.3 309.9" style="enable-background:new 0 0 506.3 309.9;" xml:space="preserve">
<style type="text/css">
	.st0{display:none;}
	.st1{display:inline;}
	.st2{fill:#634C78;}
	.st3{fill:#E03462;}
	.st4{fill:none;stroke:#634C78;stroke-width:10;stroke-linecap:round;stroke-linejoin:round;stroke-miterlimit:10;}
	.st5{fill:none;stroke:#E03462;stroke-width:10;stroke-linecap:round;stroke-linejoin:round;stroke-miterlimit:10;}
</style>
<g class="st0">
	<g class="st1">
		<path class="st2" d="M403,213.2c-10-20.9-46-50-80.7-78.1C303,119.5,284.6,104.6,273,93c-2.9-2.9-7.3-3.9-11.2-2.5
			c-7.2,2.6-11.6,4.6-15.1,6.2c-5.3,2.4-7.1,3.2-14.3,3.9c-3.2,0.3-6,2-7.8,4.7c-15.1,22.5-30.7,20.6-41.1,17.1
			c-3.3-1.1-3.9-2.5-4.2-3.9c-2.2-9.4,9-31.2,23.6-45.7c34.7-34.7,52.5-43.4,90.3-26.5c42.8,19.2,85.8,34.2,86.2,34.3
			c5.6,1.9,11.6-1,13.6-6.6c1.9-5.6-1-11.6-6.6-13.6c-0.4-0.1-42.5-14.8-84.5-33.6C252.9,4.9,226,19.3,187.7,57.6
			c-14.6,14.6-34.4,44.1-29.3,65.8c2.2,9.2,8.7,16,18.3,19.2c24.2,8,46.2,0.3,62.7-21.5c6.8-1,10.5-2.6,16-5.1
			c2-0.9,4.4-1.9,7.5-3.2c12.2,11.5,28.7,24.8,46,38.8c31.4,25.4,66.9,54.1,74.9,70.8c3.9,8.2-0.3,13.6-3.2,16
			c-4.2,3.6-10,4.8-13.1,2.6c-3.5-2.4-8-2.5-11.5-0.4c-3.6,2.1-5.6,6.2-5.1,10.3c0.7,6.8-5.5,10.7-8.2,12c-6.8,3.5-14,2.9-16.6,0.4
			c-3-2.8-7.3-3.6-11.1-2.2c-3.8,1.4-6.4,4.9-6.8,9c-0.6,7-5.8,13.7-12.6,16.3c-3.3,1.2-8,2-12.2-1.9c-2.6-2.4-6.3-3.3-9.7-2.5
			c-3.5,0.9-6.3,3.4-7.5,6.7c-0.4,1.1-1.3,3.6-11.3,3.6c-7.1,0-19.9-4.8-26.1-8.9c-7.5-4.9-54.4-40-95-73.9
			c-5.7-4.8-15.6-15.1-24.3-24.2c-7.7-8.1-14.8-15.4-18.4-18.5c-4.5-3.8-11.3-3.3-15,1.3c-3.8,4.5-3.2,11.2,1.3,15
			c3.3,2.8,9.7,9.6,16.8,16.9c9.5,9.9,19.3,20.2,26,25.8c39.7,33.3,87.5,69.2,97,75.4c7.9,5.2,24.8,12.4,37.9,12.4
			c10.5,0,18.6-2.4,24.2-7.1c7.5,2.9,16,2.9,24.3-0.3c9.7-3.8,17.7-11.3,22.2-20.5c8.4,1.8,18,0.5,26.8-3.9
			c8.6-4.3,14.7-10.9,17.8-18.6c8.5,0.4,17.2-2.6,24.5-8.8C406.8,244.2,410.1,227.9,403,213.2z"/>
	</g>
</g>
<g class="st0">
	<g class="st1">
		<path class="st3" d="M123.5,18.1C105.2,0.8,32.1-4.9,10.1-6.2c-3-0.1-5.8,0.9-8,2.9C0-1.3-1.2,1.5-1.2,4.5v192
			c0,5.9,4.8,10.7,10.7,10.7h64c4.6,0,8.7-3,10.1-7.4c1.6-4.8,38.3-117.6,43.2-173.1C127,23.5,125.8,20.3,123.5,18.1z M65.7,185.8
			H20.1V15.9c34.3,2.7,71.3,8.6,84.7,15.1C99.2,77.8,73.6,160.8,65.7,185.8z"/>
	</g>
</g>
<line class="st4" x1="398" y1="215.4" x2="428.8" y2="193.6"/>
<path class="st4" d="M78.7,170.9c0,0,40,39.7,48.5,47s80.8,67.8,93.3,73.5s46.9,26.4,54.4,1.4c18.2,6.6,39,4.4,41.8-22.7
	c18.6,7.4,45.3,2.2,45-19.7c14.1,1.3,37.3,1.4,35.5-34.3c-0.8-11.2-133.1-115.9-133.1-115.9s-21.1,10.8-27.8,10.2
	c-4.9,6.3-40.3,41.7-63.4,17s42.8-81.8,42.8-81.8s27.6-21.7,45.8-19c18.2,2.7,121.6,43.3,121.6,43.3"/>
<g class="st0">
	<g class="st1">
		<path class="st3" d="M500.1,15.2c-83.8,0-130.2,21.4-132.2,22.3c-2.8,1.3-4.8,3.7-5.7,6.6s-0.4,6.1,1.2,8.7
			c13.2,21.2,54.5,139.1,62.4,167.9c1.3,4.6,5.5,7.8,10.3,7.8h64c5.9,0,10.7-4.8,10.7-10.7v-192C510.8,19.9,506,15.2,500.1,15.2z
			 M489.4,207.2h-45.4c-10.1-32.9-40-118.8-56.6-154.3c16.3-5.5,51.2-15,102-16.2V207.2z"/>
	</g>
</g>
<path class="st5" d="M374.7,46.8c0,0,70-27.4,126-17.6c0,53,0,188.7,0,188.7h-63L374.7,46.8z"/>
<line class="st4" x1="113.5" y1="47.2" x2="210.8" y2="47.2"/>
<path class="st5" d="M119,24.8c0,0-57-27-113-17.3c0,53,0,188.7,0,188.7h63L119,24.8z"/>
<line class="st4" x1="222.7" y1="239.1" x2="274.9" y2="292.7"/>
<line class="st4" x1="264.1" y1="216" x2="317.4" y2="270.8"/>
<line class="st4" x1="296" y1="182.8" x2="362.9" y2="251.6"/>
</svg>
